<svg width="17" height="15" viewBox="0 0 17 15" fill="none" xmlns="http://www.w3.org/2000/svg">
<path d="M7.4849 6.74584C7.24124 6.5855 7.02115 6.41059 6.84037 6.2211L5.73994 5.09144C5.5906 4.93839 5.40196 4.81449 5.19759 4.72703C4.96965 4.625 4.71026 4.5594 4.44302 4.5594H4.41944C3.44477 4.5594 2.6509 5.2955 2.6509 6.19923V6.74584H0.292847V12.5763C0.292847 13.378 1.00026 14.034 1.86488 14.034H14.4412C15.3058 14.034 16.0132 13.378 16.0132 12.5763V6.74584H7.4849ZM4.22293 12.5763H2.6509V8.20347H4.22293V12.5763ZM7.367 12.5763H5.79497V8.20347H7.367V12.5763ZM10.5111 12.5763H8.93903V8.20347H10.5111V12.5763ZM13.6551 12.5763H12.0831V8.20347H13.6551V12.5763ZM13.38 2.27093L13.325 2.21991C12.877 1.76805 12.6805 1.19229 12.7984 0.616523L12.8691 0.186523H11.3835L11.3364 0.499913C11.1792 1.4911 11.5486 2.475 12.3582 3.2111L12.4132 3.25483C12.8613 3.70669 13.0578 4.28245 12.9399 4.85822L12.8534 5.28822H14.3547L14.4019 4.97483C14.5669 3.98364 14.1896 2.99974 13.38 2.27093ZM10.236 2.27093L10.1809 2.21991C9.73291 1.76805 9.53641 1.19229 9.65431 0.616523L9.72505 0.186523H8.23948L8.19232 0.499913C8.03511 1.4911 8.40454 2.475 9.21414 3.2111L9.26916 3.25483C9.71719 3.70669 9.91369 4.28245 9.79579 4.85822L9.70933 5.28822H11.2106L11.2578 4.97483C11.4228 3.98364 11.0456 2.99974 10.236 2.27093Z" fill="white"/>
</svg>
