<svg width="53" height="42" viewBox="0 0 53 42" fill="none" xmlns="http://www.w3.org/2000/svg">
<path d="M21.4661 27.5625H21.4645C21.4645 26.2352 21.5718 26.8464 14.6547 12.673C13.2415 9.77813 9.19491 9.77238 7.77931 12.673C0.80381 26.9678 0.970351 26.2771 0.970351 27.5625H0.96875C0.96875 31.1866 5.55743 34.125 11.2174 34.125C16.8774 34.125 21.4661 31.1866 21.4661 27.5625ZM11.2174 14.4375L16.9823 26.25H5.45255L11.2174 14.4375ZM52.2105 27.5625C52.2105 26.2352 52.3178 26.8464 45.4008 12.673C43.9876 9.77813 39.9409 9.77238 38.5253 12.673C31.5498 26.9678 31.7164 26.2771 31.7164 27.5625H31.7148C31.7148 31.1866 36.3035 34.125 41.9634 34.125C47.6234 34.125 52.2121 31.1866 52.2121 27.5625H52.2105ZM36.1986 26.25L41.9634 14.4375L47.7283 26.25H36.1986ZM43.2445 36.75H29.1526V12.5713C31.035 11.7272 32.4482 9.98895 32.8669 7.875H43.2445C43.9523 7.875 44.5256 7.28766 44.5256 6.5625V3.9375C44.5256 3.21234 43.9523 2.625 43.2445 2.625H31.6859C30.517 1.04016 28.6794 0 26.5904 0C24.5015 0 22.6639 1.04016 21.4949 2.625H9.93634C9.22854 2.625 8.65526 3.21234 8.65526 3.9375V6.5625C8.65526 7.28766 9.22854 7.875 9.93634 7.875H20.3139C20.7327 9.98812 22.1451 11.7272 24.0283 12.5713V36.75H9.93634C9.22854 36.75 8.65526 37.3373 8.65526 38.0625V40.6875C8.65526 41.4127 9.22854 42 9.93634 42H43.2445C43.9523 42 44.5256 41.4127 44.5256 40.6875V38.0625C44.5256 37.3373 43.9523 36.75 43.2445 36.75Z" fill="white"/>
</svg>
