<svg width="42" height="42" viewBox="0 0 42 42" fill="none" xmlns="http://www.w3.org/2000/svg">
<path d="M19.9393 26.5607L11.25 35.25L14.3364 38.159C15.7539 39.5765 14.7501 42 12.7455 42H2.2455C1.00284 42 0 40.9927 0 39.75V29.25C0 27.2454 2.41903 26.2416 3.83644 27.659L6.75 30.75L15.4393 22.0607C16.0251 21.4749 16.9748 21.4749 17.5606 22.0607L19.9393 24.4394C20.5252 25.0252 20.5252 25.9748 19.9393 26.5607ZM22.0607 15.4393L30.75 6.75L27.6636 3.84103C26.2461 2.42353 27.2499 0 29.2545 0H39.7545C40.9972 0 42 1.00734 42 2.25V12.75C42 14.7546 39.581 15.7584 38.1636 14.341L35.25 11.25L26.5607 19.9393C25.9749 20.5251 25.0252 20.5251 24.4394 19.9393L22.0607 17.5606C21.4748 16.9748 21.4748 16.0252 22.0607 15.4393Z" fill="white"/>
</svg>
