<svg width="52" height="27" viewBox="0 0 52 27" fill="none" xmlns="http://www.w3.org/2000/svg">
<g clip-path="url(#clip0)">
<path d="M26.67 0H24.558H0V26.67H24.558H26.67H51.228V0H26.67Z" fill="white"/>
<path d="M25.6132 25.6132V1.05518H1.05518V25.6132H25.6132Z" fill="#00AF91"/>
<path d="M25.6138 1.05591V25.6139H50.1718V1.05591H25.6138Z" fill="#F58634"/>
<path d="M9.55292 16.8959C10.3388 17.3134 11.5176 17.7309 12.77 17.7309C14.0961 17.7309 14.7838 17.1415 14.7838 16.282C14.7838 15.447 14.1698 14.9804 12.6227 14.391C10.4861 13.6297 9.11087 12.3773 9.11087 10.4372C9.11087 8.15329 10.9282 6.40967 13.9488 6.40967C15.3732 6.40967 16.4537 6.72892 17.1905 7.09729L16.5274 9.52854C16.0117 9.28295 15.103 8.89003 13.8506 8.89003C12.5981 8.89003 12.0333 9.50398 12.0333 10.1916C12.0333 11.0511 12.7455 11.4195 14.4154 12.0826C16.6747 12.9667 17.7307 14.1946 17.7307 16.061C17.7307 18.3203 16.0608 20.2358 12.5736 20.2358C11.1246 20.2358 9.67571 19.8183 8.93896 19.4009L9.55292 16.8959Z" fill="white"/>
<path d="M33.8656 16.8959C34.6514 17.3134 35.8302 17.7309 37.0827 17.7309C38.4088 17.7309 39.0964 17.1415 39.0964 16.282C39.0964 15.447 38.4825 14.9804 36.9353 14.391C34.7988 13.6297 33.4481 12.3773 33.4481 10.4372C33.4481 8.15329 35.2654 6.40967 38.286 6.40967C39.7104 6.40967 40.7909 6.72892 41.5277 7.09729L40.8646 9.52853C40.3489 9.28295 39.4402 8.89003 38.1878 8.89003C36.9353 8.89003 36.3214 9.47942 36.3214 10.167C36.3214 11.0266 37.0335 11.3949 38.7035 12.058C40.9628 12.9421 42.0188 14.17 42.0188 16.0364C42.0188 18.2957 40.3734 20.2113 36.8616 20.2113C35.4127 20.2113 33.9638 19.7938 33.2271 19.3763L33.8656 16.8959Z" fill="white"/>
<path d="M27.0386 11.3705V6.6062H24.1407V11.3705H19.6221V14.3174H24.1407V19.0571H27.0386V14.3174H31.5818V11.3705H27.0386Z" fill="white"/>
<path d="M30.7221 12.2298H26.1789V7.46558H25.0001V12.2298H20.4814V13.4577H25.0001V18.1974H26.1789V13.4577H30.7221V12.2298Z" fill="#F58634"/>
</g>
<defs>
<clipPath id="clip0">
<rect width="51.228" height="26.67" fill="white"/>
</clipPath>
</defs>
</svg>
