<svg width="101" height="100" viewBox="0 0 101 100" fill="none" xmlns="http://www.w3.org/2000/svg">
<g clip-path="url(#clip0)">
<path d="M47.4951 37.721H53.3399V0H0V53.3399H38.4578V47.2495H47.4951V37.721Z" fill="white"/>
<path d="M61.5918 46.6601V52.7505H52.5054V62.2299H46.7588V100H100.099V46.6601H61.5918Z" fill="white"/>
<path d="M53.3396 62.8193V53.3399H62.426V46.6601H53.3396V37.1316H46.758V46.6601H37.7207V53.3399H46.758V62.8193H53.3396Z" fill="white"/>
<path d="M46.7587 46.6601V37.1316H51.2282V2.11197H2.1123V51.2279H37.7213V46.6601H46.7587Z" fill="#00AF91"/>
<path d="M62.4261 48.7721V53.3399H53.3397V62.8192H48.8701V97.888H97.986V48.7721H62.4261Z" fill="#F58634"/>
<path d="M19.1058 33.7917C20.6775 34.6267 23.0351 35.4617 25.54 35.4617C28.1923 35.4617 29.5675 34.2829 29.5675 32.5639C29.5675 30.8939 28.3396 29.9607 25.2453 28.7819C20.9722 27.2593 18.2217 24.7544 18.2217 20.8743C18.2217 16.3065 21.8563 12.8193 27.8976 12.8193C30.7463 12.8193 32.9074 13.4578 34.3809 14.1945L33.0547 19.057C32.0233 18.5658 30.206 17.78 27.7011 17.78C25.1962 17.78 24.0665 19.0079 24.0665 20.3831C24.0665 22.1022 25.4909 22.8389 28.8308 24.165C33.3494 25.9332 35.4614 28.389 35.4614 32.1218C35.4614 36.6405 32.1215 40.4715 25.1471 40.4715C22.2492 40.4715 19.3514 39.6365 17.8779 38.8016L19.1058 33.7917Z" fill="white"/>
<path d="M65.8649 80.4519C67.4366 81.2868 69.7942 82.1218 72.2991 82.1218C74.9514 82.1218 76.3266 80.943 76.3266 79.224C76.3266 77.554 75.0987 76.6208 72.0044 75.442C67.7313 73.9194 65.0299 71.4145 65.0299 67.5344C65.0299 62.9666 68.6645 59.4794 74.7058 59.4794C77.5545 59.4794 79.7156 60.1179 81.1891 60.8546L79.8629 65.7171C78.8315 65.2259 77.0142 64.4401 74.5093 64.4401C72.0044 64.4401 70.7765 65.6189 70.7765 66.9941C70.7765 68.7132 72.2009 69.4499 75.5407 70.776C80.0594 72.5442 82.1714 75 82.1714 78.7328C82.1714 83.2515 78.8806 87.0825 71.857 87.0825C68.9592 87.0825 66.0614 86.2475 64.5879 85.4126L65.8649 80.4519Z" fill="white"/>
<path d="M60.3143 48.7721H51.2279V39.2436H48.8703V48.7721H39.833V51.2279H48.8703V60.7073H51.2279V51.2279H60.3143V48.7721Z" fill="#F58634"/>
</g>
<defs>
<clipPath id="clip0">
<rect width="100.098" height="100" fill="white"/>
</clipPath>
</defs>
</svg>
