<svg width="44" height="42" viewBox="0 0 44 42" fill="none" xmlns="http://www.w3.org/2000/svg">
<path d="M15.4838 25.1177C15.4838 24.7059 15.0681 23.0588 14.2367 23.0588C13.821 23.4706 13.4053 24.7059 13.4053 25.1177C13.4053 25.5294 13.821 26.353 14.6524 26.353C15.0681 26.353 15.4838 25.9412 15.4838 25.1177Z" fill="white"/>
<path d="M20.0563 37.8823C19.6406 37.8823 18.8092 37.8823 18.3935 37.8823C11.7421 37.8823 5.09064 30.4706 4.25921 22.647C4.25921 19.7647 4.67493 16.4705 5.92207 13.5882L3.01207 10.2941C0.517793 14.4117 -0.313634 19.3529 0.10208 23.0588C0.933506 32.9411 9.66349 42 18.3935 42C19.6406 42 20.8877 42 22.1349 41.5882C23.382 42 24.6292 42 25.8763 42C28.3706 42 30.8649 41.1764 32.9434 39.9412L20.0563 27.5882V37.8823Z" fill="white"/>
<path d="M32.9452 3.70589C29.6195 2.88236 26.2938 3.70589 24.2152 4.94118V0H20.0581V4.52942C17.5638 3.70589 14.6538 2.88236 11.3281 3.70589C10.0809 3.70589 9.24951 4.11765 8.41808 4.52942L3.84524 0L0.519531 2.88236L39.1809 41.1765L42.0909 38.2942L38.7652 35C41.6751 31.7059 43.338 27.5883 43.7537 23.0588C44.5851 16.0588 41.6751 5.35295 32.9452 3.70589ZM11.3281 7.82354C11.7438 7.82354 11.7438 7.41177 12.1595 7.41177C12.5752 7.41177 13.4066 7.41177 13.8224 7.41177C16.3166 7.41177 18.3952 8.64707 20.0581 9.4706V16.4706L11.3281 7.82354Z" fill="white"/>
</svg>
