<svg width="24" height="24" viewBox="0 0 24 24" fill="none" xmlns="http://www.w3.org/2000/svg">
<g clip-path="url(#clip0)">
<path d="M0 0L2.86197e-07 24L24 24L24 -8.77886e-07L0 0Z" fill="#979797"/>
<path d="M16.59 8.58997L12 13.17L7.41 8.58997L6 9.99997L12 16L18 9.99997L16.59 8.58997Z" fill="white"/>
</g>
<defs>
<clipPath id="clip0">
<path d="M12 -4.38943e-07C5.37258 -1.96521e-07 6.40674e-08 5.37258 1.43099e-07 12C2.2213e-07 18.6274 5.37258 24 12 24C18.6274 24 24 18.6274 24 12C24 5.37258 18.6274 -6.81364e-07 12 -4.38943e-07Z" fill="white"/>
</clipPath>
</defs>
</svg>
