<svg width="50" height="50" viewBox="0 0 50 50" fill="none" xmlns="http://www.w3.org/2000/svg">
<path d="M23.7242 18.8605H26.6438V0H0V26.6699H19.21V23.6248H23.7242V18.8605Z" fill="white"/>
<path d="M30.7657 23.3301V26.3753H26.2269V31.1149H23.3564V50H50.0002V23.3301H30.7657Z" fill="white"/>
<path d="M26.6436 31.4097V26.67H31.1823V23.3302H26.6436V18.5659H23.356V23.3302H18.8418V26.67H23.356V31.4097H26.6436Z" fill="white"/>
<path d="M23.356 23.33V18.5657H25.5885V1.05591H1.05469V25.6139H18.8417V23.33H23.356Z" fill="#00AF91"/>
<path d="M31.1825 24.386V26.6699H26.6437V31.4096H24.4111V48.9439H48.945V24.386H31.1825Z" fill="#F58634"/>
<path d="M9.54401 16.8959C10.3291 17.3134 11.5067 17.7309 12.7579 17.7309C14.0828 17.7309 14.7697 17.1415 14.7697 16.282C14.7697 15.447 14.1564 14.9804 12.6107 14.391C10.4763 13.6297 9.1024 12.3772 9.1024 10.4372C9.1024 8.15328 10.9179 6.40967 13.9356 6.40967C15.3585 6.40967 16.438 6.72892 17.174 7.09729L16.5116 9.52853C15.9964 9.28295 15.0887 8.89002 13.8374 8.89002C12.5862 8.89002 12.0219 9.50397 12.0219 10.1916C12.0219 11.0511 12.7334 11.4195 14.4017 12.0826C16.6588 12.9666 17.7138 14.1945 17.7138 16.0609C17.7138 18.3203 16.0455 20.2358 12.5617 20.2358C11.1142 20.2358 9.66668 19.8183 8.93066 19.4008L9.54401 16.8959Z" fill="white"/>
<path d="M32.8996 40.226C33.6847 40.6435 34.8623 41.061 36.1135 41.061C37.4384 41.061 38.1253 40.4716 38.1253 39.612C38.1253 38.7771 37.512 38.3105 35.9663 37.7211C33.8319 36.9598 32.4825 35.7073 32.4825 33.7673C32.4825 31.4834 34.298 29.7397 37.3157 29.7397C38.7387 29.7397 39.8181 30.059 40.5542 30.4274L39.8918 32.8586C39.3765 32.613 38.4688 32.2201 37.2176 32.2201C35.9663 32.2201 35.353 32.8095 35.353 33.4971C35.353 34.3566 36.0645 34.725 37.7328 35.3881C39.9899 36.2722 41.0448 37.5001 41.0448 39.3665C41.0448 41.6258 39.4011 43.5413 35.8927 43.5413C34.4452 43.5413 32.9977 43.1238 32.2617 42.7063L32.8996 40.226Z" fill="white"/>
<path d="M30.1271 24.3861H25.5883V19.6218H24.4107V24.3861H19.8965V25.614H24.4107V30.3537H25.5883V25.614H30.1271V24.3861Z" fill="#F58634"/>
</svg>
