<svg width="715" height="180" viewBox="0 0 715 180" fill="none" xmlns="http://www.w3.org/2000/svg">
<path d="M519.741 146.4C522.857 147.688 527.613 149.043 532.616 149.043C537.946 149.043 540.735 147.213 540.735 144.434C540.735 141.79 538.274 140.299 532.124 138.469C523.595 136.028 518.1 132.096 518.1 125.996C518.1 118.742 525.399 113.251 537.454 113.251C543.195 113.251 547.459 114.268 550.494 115.421L547.951 123.148C545.901 122.335 542.293 121.115 537.208 121.115C532.124 121.115 529.746 123.013 529.746 125.182C529.746 127.894 532.616 129.046 539.259 131.147C548.28 133.927 552.544 137.791 552.544 143.756C552.544 150.874 545.901 156.975 531.878 156.975C526.055 156.975 520.233 155.687 517.362 154.331L519.741 146.4Z" fill="white"/>
<path d="M591.662 148.84C591.662 151.823 591.826 154.602 592.154 156.297H581.739L581.083 153.246H580.836C578.376 155.687 574.604 157.042 570.175 157.042C562.631 157.042 558.202 152.501 558.202 147.62C558.202 139.621 566.895 135.825 580.016 135.893V135.486C580.016 133.859 578.95 131.554 573.292 131.554C569.519 131.554 565.501 132.639 563.041 133.859L560.908 127.69C563.533 126.47 568.617 124.979 575.342 124.979C587.725 124.979 591.662 131.012 591.662 138.265V148.84ZM580.426 141.79C574.358 141.722 569.601 142.942 569.601 146.603C569.601 149.043 571.57 150.264 574.194 150.264C577.064 150.264 579.442 148.704 580.18 146.739C580.344 146.264 580.426 145.654 580.426 145.112V141.79Z" fill="white"/>
<path d="M597.812 150.806L609.54 138.672C611.672 136.57 613.312 135.079 615.444 133.181V133.046H599.125V125.589H629.55V131.283L618.397 142.875C616.346 144.908 614.46 146.806 612.328 148.501V148.637H630.206V156.229H597.895V150.806H597.812Z" fill="white"/>
<path d="M672.605 140.57C672.605 151.823 662.928 156.974 653.004 156.974C642.097 156.974 633.814 151.077 633.814 141.112C633.814 131.215 641.687 124.843 653.661 124.843C664.978 124.911 672.605 131.351 672.605 140.57ZM645.706 140.909C645.706 146.196 648.33 150.128 653.333 150.128C657.843 150.128 660.713 146.4 660.713 140.909C660.713 136.299 658.581 131.69 653.333 131.69C647.756 131.69 645.706 136.367 645.706 140.909ZM665.306 112.167L656.039 121.725H648.084L654.645 112.167H665.306Z" fill="white"/>
<path d="M679.739 135.35C679.739 131.486 679.575 128.232 679.411 125.521H689.416L689.908 129.724H690.154C691.712 127.758 695.485 124.843 701.635 124.843C709.262 124.843 714.921 128.978 714.921 138.062V156.297H703.358V139.282C703.358 135.35 701.717 132.639 697.535 132.639C694.337 132.639 692.45 134.469 691.712 136.231C691.384 136.841 691.22 137.723 691.22 138.604V156.297H679.657V135.35H679.739Z" fill="white"/>
<path d="M3.41702 63.049C6.50072 64.3235 11.2074 65.665 16.1576 65.665C21.4323 65.665 24.1914 63.8539 24.1914 61.1037C24.1914 58.4877 21.7569 57.0119 15.6707 55.2008C7.23107 52.8531 1.71287 48.9626 1.71287 42.8585C1.71287 35.6811 8.93522 30.2478 20.8643 30.2478C26.5448 30.2478 30.7646 31.254 33.7671 32.3943L31.1703 40.0412C29.1416 39.2363 25.571 38.0289 20.5397 38.0289C15.5895 38.0289 13.155 39.907 13.155 42.0535C13.155 44.7367 15.9953 45.877 22.5684 47.9564C31.4949 50.7066 35.7147 54.5301 35.7147 60.4329C35.7147 67.4761 29.1416 73.5132 15.2649 73.5132C9.50327 73.5132 3.74162 72.2387 0.901367 70.8971L3.41702 63.049Z" fill="white"/>
<path d="M55.6781 34.2056V42.4562H63.8742V49.4323H55.6781V60.4331C55.6781 64.1224 56.733 65.7994 60.2225 65.7994C61.7643 65.7994 62.4947 65.7323 63.6308 65.531L63.7119 72.7084C62.1701 73.1779 59.4921 73.5804 56.2461 73.5804C52.5944 73.5804 49.5107 72.4401 47.6442 70.8973C45.5343 69.0862 44.4794 66.2018 44.4794 61.9088V49.4323H39.6104V42.4562H44.4794V36.7545L55.6781 34.2056Z" fill="white"/>
<path d="M101.122 65.4642C101.122 68.4157 101.284 71.1659 101.609 72.8428H91.3028L90.6536 69.8243H90.4101C87.9756 72.2391 84.2427 73.5807 79.8606 73.5807C72.3948 73.5807 68.0127 69.0865 68.0127 64.2568C68.0127 56.3416 76.6146 52.5853 89.5986 52.6523V52.2499C89.5986 50.64 88.5437 48.3594 82.9443 48.3594C79.2114 48.3594 75.235 49.4326 72.8005 50.64L70.6906 44.5359C73.2874 43.3285 78.3188 41.8528 84.9731 41.8528C97.2267 41.8528 101.122 47.8227 101.122 55.0001V65.4642ZM90.0044 58.4881C83.9993 58.4211 79.2926 59.6285 79.2926 63.2507C79.2926 65.6655 81.2402 66.8729 83.837 66.8729C86.6772 66.8729 89.0306 65.3301 89.7609 63.3848C89.9232 62.9153 90.0044 62.3116 90.0044 61.775V58.4881Z" fill="white"/>
<path d="M110.21 52.1151C110.21 48.2917 110.048 45.0719 109.886 42.3888H119.786L120.273 46.5476H120.516C122.058 44.6024 125.791 41.718 131.877 41.718C139.424 41.718 145.024 45.8098 145.024 54.7982V72.8422H133.582V56.0056C133.582 52.1151 131.959 49.432 127.82 49.432C124.655 49.432 122.789 51.2431 122.058 52.9871C121.734 53.5908 121.571 54.4628 121.571 55.3348V72.8422H110.129V52.1151H110.21Z" fill="white"/>
<path d="M189.9 28.7051V63.7869C189.9 67.2079 190.063 70.8301 190.225 72.8424H180.081L179.594 68.3482H179.432C177.079 71.7692 172.697 73.5132 167.909 73.5132C159.145 73.5132 152.166 67.342 152.166 57.884C152.085 47.6211 159.875 41.7182 168.639 41.7182C173.184 41.7182 176.673 42.9927 178.377 45.1392H178.539V28.7051H189.9ZM178.458 55.3351C178.458 54.8655 178.377 54.1277 178.296 53.6581C177.647 51.1091 175.131 48.9626 171.642 48.9626C166.448 48.9626 163.77 52.7861 163.77 57.6157C163.77 62.7807 166.854 66.0005 171.561 66.0005C174.888 66.0005 177.484 64.1223 178.215 61.4392C178.458 60.7684 178.539 60.0976 178.539 59.2927V55.3351H178.458Z" fill="white"/>
<path d="M229.744 65.4642C229.744 68.4157 229.906 71.1659 230.231 72.8428H219.925L219.276 69.8243H219.032C216.598 72.2391 212.865 73.5807 208.483 73.5807C201.017 73.5807 196.635 69.0865 196.635 64.2568C196.635 56.3416 205.237 52.5853 218.221 52.6523V52.2499C218.221 50.64 217.166 48.3594 211.566 48.3594C207.833 48.3594 203.857 49.4326 201.423 50.64L199.313 44.5359C201.91 43.3285 206.941 41.8528 213.595 41.8528C225.849 41.8528 229.744 47.8227 229.744 55.0001V65.4642ZM218.626 58.4881C212.621 58.4211 207.915 59.6285 207.915 63.2507C207.915 65.6655 209.862 66.8729 212.459 66.8729C215.299 66.8729 217.653 65.3301 218.383 63.3848C218.545 62.9153 218.626 62.3116 218.626 61.775V58.4881Z" fill="white"/>
<path d="M238.753 52.4505C238.753 47.9563 238.591 45.0719 238.429 42.4559H248.248L248.654 48.0233H248.978C250.845 43.5962 255.389 41.718 258.879 41.718C259.933 41.718 260.42 41.718 261.313 41.8522V50.8406C260.502 50.6394 259.528 50.5052 258.229 50.5052C254.01 50.5052 251.169 52.3834 250.439 55.2678C250.277 55.8715 250.195 56.6093 250.195 57.4143V72.8422H238.753V52.4505Z" fill="white"/>
<path d="M302.373 28.7051V63.7869C302.373 67.2079 302.535 70.8301 302.698 72.8424H292.554L292.067 68.3482H291.905C289.551 71.7692 285.169 73.5132 280.381 73.5132C271.617 73.5132 264.638 67.342 264.638 57.884C264.557 47.6211 272.348 41.7182 281.112 41.7182C285.656 41.7182 289.146 42.9927 290.85 45.1392H291.012V28.7051H302.373ZM290.931 55.3351C290.931 54.8655 290.85 54.1277 290.769 53.6581C290.119 51.1091 287.604 48.9626 284.114 48.9626C278.921 48.9626 276.243 52.7861 276.243 57.6157C276.243 62.7807 279.326 66.0005 284.033 66.0005C287.36 66.0005 289.957 64.1223 290.687 61.4392C290.931 60.7684 291.012 60.0976 291.012 59.2927V55.3351H290.931Z" fill="white"/>
<g clip-path="url(#clip0)">
<path d="M407.884 68.3474H418.383V0.884766H322.565V96.2811H391.649V85.3887H407.884V68.3474Z" fill="white"/>
<path d="M433.206 84.3345V95.2269H416.883V112.18H406.561V179.731H502.378V84.3345H433.206Z" fill="white"/>
<path d="M418.383 113.235V96.281H434.706V84.3345H418.383V67.2932H406.56V84.3345H390.326V96.281H406.56V113.235H418.383Z" fill="white"/>
<path d="M406.56 84.3345V67.2932H414.589V4.66187H326.359V92.5038H390.326V84.3345H406.56Z" fill="#00AF91"/>
<path d="M434.706 88.1118V96.2811H418.383V113.235H410.354V175.954H498.584V88.1118H434.706Z" fill="#F58634"/>
<path d="M356.886 61.32C359.71 62.8133 363.945 64.3066 368.445 64.3066C373.209 64.3066 375.679 62.1984 375.679 59.124C375.679 56.1373 373.474 54.4683 367.915 52.3601C360.239 49.637 355.298 45.1571 355.298 38.2176C355.298 30.0483 361.827 23.8115 372.68 23.8115C377.797 23.8115 381.679 24.9535 384.326 26.2711L381.944 34.9674C380.091 34.089 376.826 32.6836 372.327 32.6836C367.827 32.6836 365.798 34.8796 365.798 37.3392C365.798 40.4136 368.356 41.7313 374.356 44.103C382.473 47.2653 386.267 51.6574 386.267 58.3334C386.267 66.4148 380.267 73.2665 367.739 73.2665C362.533 73.2665 357.328 71.7732 354.681 70.2799L356.886 61.32Z" fill="white"/>
<path d="M440.882 144.77C443.705 146.263 447.94 147.756 452.44 147.756C457.204 147.756 459.675 145.648 459.675 142.574C459.675 139.587 457.469 137.918 451.911 135.81C444.235 133.087 439.382 128.607 439.382 121.667C439.382 113.498 445.911 107.261 456.763 107.261C461.881 107.261 465.763 108.403 468.41 109.721L466.027 118.417C464.175 117.539 460.91 116.133 456.41 116.133C451.911 116.133 449.705 118.241 449.705 120.701C449.705 123.776 452.264 125.093 458.263 127.465C466.38 130.627 470.174 135.019 470.174 141.695C470.174 149.777 464.263 156.628 451.646 156.628C446.44 156.628 441.235 155.135 438.588 153.642L440.882 144.77Z" fill="white"/>
<path d="M430.912 88.1119H414.589V71.0706H410.354V88.1119H394.12V92.504H410.354V109.457H414.589V92.504H430.912V88.1119Z" fill="#F58634"/>
</g>
<defs>
<clipPath id="clip0">
<rect width="179.812" height="178.846" fill="white" transform="translate(322.565 0.884766)"/>
</clipPath>
</defs>
</svg>
