<svg width="194" height="86" viewBox="0 0 194 86" fill="none" xmlns="http://www.w3.org/2000/svg">
<g clip-path="url(#clip0)">
<path d="M39.9222 32.8122H44.835V0.776367H0V46.077H32.3258V40.9045H39.9222V32.8122Z" fill="white"/>
<path d="M51.7707 40.4041V45.5765H44.133V53.6272H39.3027V85.7047H84.1378V40.4041H51.7707Z" fill="white"/>
<path d="M44.8355 54.1276V46.0769H52.4732V40.4039H44.8355V32.3115H39.3034V40.4039H31.707V46.0769H39.3034V54.1276H44.8355Z" fill="white"/>
<path d="M39.3031 40.404V32.3116H43.06V2.57007H1.77539V44.2834H31.7067V40.404H39.3031Z" fill="#00AF91"/>
<path d="M52.4727 42.1978V46.0771H44.835V54.1277H41.0781V83.911H82.3627V42.1978H52.4727Z" fill="#F58634"/>
<path d="M16.0595 29.4751C17.3806 30.1843 19.3622 30.8934 21.4677 30.8934C23.6971 30.8934 24.8531 29.8923 24.8531 28.4323C24.8531 27.0141 23.821 26.2215 21.22 25.2204C17.6283 23.9273 15.3163 21.7999 15.3163 18.5046C15.3163 14.6252 18.3714 11.6636 23.4494 11.6636C25.8439 11.6636 27.6604 12.2058 28.899 12.8315L27.7843 16.9612C26.9173 16.544 25.3898 15.8766 23.2843 15.8766C21.1787 15.8766 20.2292 16.9194 20.2292 18.0874C20.2292 19.5474 21.4264 20.1731 24.2338 21.2993C28.032 22.801 29.8072 24.8867 29.8072 28.0569C29.8072 31.8945 26.9999 35.1481 21.1375 35.1481C18.7017 35.1481 16.2659 34.439 15.0273 33.7299L16.0595 29.4751Z" fill="white"/>
<path d="M55.3625 69.1028C56.6836 69.812 58.6652 70.5211 60.7707 70.5211C63.0001 70.5211 64.1561 69.52 64.1561 68.06C64.1561 66.6417 63.124 65.8492 60.523 64.8481C56.9313 63.555 54.6606 61.4276 54.6606 58.1322C54.6606 54.2529 57.7157 51.2913 62.7937 51.2913C65.1882 51.2913 67.0047 51.8335 68.2433 52.4592L67.1286 56.5888C66.2616 56.1717 64.7341 55.5043 62.6285 55.5043C60.523 55.5043 59.4909 56.5054 59.4909 57.6734C59.4909 59.1334 60.6882 59.7591 63.4955 60.8853C67.2937 62.387 69.0689 64.4727 69.0689 67.6429C69.0689 71.4805 66.3029 74.7341 60.3992 74.7341C57.9634 74.7341 55.5276 74.025 54.2891 73.3159L55.3625 69.1028Z" fill="white"/>
<path d="M50.6971 42.1976H43.0595V34.1052H41.0778V42.1976H33.4814V44.2833H41.0778V52.3339H43.0595V44.2833H50.6971V42.1976Z" fill="#F58634"/>
</g>
<path d="M92.0996 69.5977C93.5404 70.2299 95.7396 70.8954 98.0525 70.8954C100.517 70.8954 101.806 69.997 101.806 68.6328C101.806 67.3352 100.669 66.6032 97.8251 65.7048C93.8817 64.507 91.3413 62.5772 91.3413 59.5827C91.3413 56.0225 94.7159 53.3274 100.29 53.3274C102.944 53.3274 104.916 53.8265 106.318 54.3921L105.143 58.1852C104.195 57.7859 102.527 57.187 100.176 57.187C97.825 57.187 96.7255 58.1187 96.7255 59.1834C96.7255 60.5143 98.0525 61.0799 101.124 62.1114C105.295 63.4756 107.266 65.3721 107.266 68.3001C107.266 71.7937 104.195 74.7883 97.7113 74.7883C95.0192 74.7883 92.3271 74.1561 91 73.4907L92.0996 69.5977Z" fill="white"/>
<path d="M125.353 70.7955C125.353 72.2594 125.429 73.6236 125.58 74.4554H120.765L120.462 72.9582H120.348C119.21 74.156 117.466 74.8214 115.419 74.8214C111.93 74.8214 109.883 72.5922 109.883 70.1965C109.883 66.2704 113.902 64.4071 119.969 64.4404V64.2407C119.969 63.4422 119.476 62.3109 116.86 62.3109C115.115 62.3109 113.257 62.8433 112.12 63.4422L111.134 60.4144C112.347 59.8155 114.698 59.0835 117.807 59.0835C123.533 59.0835 125.353 62.0448 125.353 65.6049V70.7955ZM120.158 67.3351C117.352 67.3018 115.153 67.9007 115.153 69.6975C115.153 70.8953 116.063 71.4942 117.277 71.4942C118.604 71.4942 119.703 70.7289 120.045 69.764C120.12 69.5311 120.158 69.2316 120.158 68.9655V67.3351Z" fill="white"/>
<path d="M128.196 71.7605L133.618 65.8047C134.604 64.7732 135.363 64.0412 136.348 63.1096V63.043H128.803V59.3831H142.87V62.178L137.713 67.8676C136.766 68.8657 135.893 69.7974 134.908 70.6292V70.6957H143.173V74.4223H128.234V71.7605H128.196Z" fill="white"/>
<path d="M162.777 66.7362C162.777 72.2595 158.302 74.7882 153.714 74.7882C148.671 74.7882 144.842 71.8935 144.842 67.0024C144.842 62.1446 148.482 59.0169 154.018 59.0169C159.25 59.0502 162.777 62.2111 162.777 66.7362ZM150.34 66.9026C150.34 69.4978 151.553 71.4276 153.866 71.4276C155.951 71.4276 157.279 69.5976 157.279 66.9026C157.279 64.64 156.293 62.3775 153.866 62.3775C151.288 62.3775 150.34 64.6733 150.34 66.9026ZM159.402 52.7949L155.117 57.4864H151.439L154.473 52.7949H159.402Z" fill="white"/>
<path d="M166.076 64.1741C166.076 62.2776 166 60.6805 165.924 59.3496H170.55L170.777 61.4125H170.891C171.611 60.4476 173.356 59.0168 176.199 59.0168C179.726 59.0168 182.342 61.0465 182.342 65.505V74.4554H176.996V66.1039C176.996 64.1741 176.237 62.8432 174.303 62.8432C172.825 62.8432 171.953 63.7416 171.611 64.6067C171.46 64.9061 171.384 65.3387 171.384 65.7712V74.4554H166.038V64.1741H166.076Z" fill="white"/>
<path d="M55.1631 27.1881C56.5889 27.8137 58.765 28.4722 61.0538 28.4722C63.4926 28.4722 64.7682 27.5832 64.7682 26.2333C64.7682 24.9493 63.6426 24.2249 60.8286 23.336C56.9266 22.1836 54.3752 20.274 54.3752 17.2779C54.3752 13.755 57.7145 11.0881 63.2299 11.0881C65.8563 11.0881 67.8074 11.582 69.1956 12.1417L67.995 15.8951C67.057 15.5 65.4061 14.9074 63.0798 14.9074C60.7911 14.9074 59.6655 15.8292 59.6655 16.8828C59.6655 18.1998 60.9787 18.7595 64.0178 19.7802C68.145 21.1301 70.0961 23.0067 70.0961 25.9041C70.0961 29.3611 67.057 32.3243 60.641 32.3243C57.9771 32.3243 55.3132 31.6988 54 31.0403L55.1631 27.1881Z" fill="white"/>
<path d="M79.3264 13.0308V17.0805H83.116V20.5046H79.3264V25.9042C79.3264 27.715 79.8142 28.5381 81.4276 28.5381C82.1404 28.5381 82.4781 28.5052 83.0034 28.4064L83.0409 31.9293C82.328 32.1598 81.0899 32.3574 79.5891 32.3574C77.9007 32.3574 76.4749 31.7976 75.6119 31.0404C74.6364 30.1514 74.1487 28.7357 74.1487 26.6285V20.5046H71.8975V17.0805H74.1487V14.2819L79.3264 13.0308Z" fill="white"/>
<path d="M100.337 28.3735C100.337 29.8222 100.412 31.1721 100.563 31.9952H95.7975L95.4974 30.5136H95.3848C94.2592 31.6989 92.5333 32.3574 90.5072 32.3574C87.0554 32.3574 85.0293 30.1514 85.0293 27.7809C85.0293 23.8958 89.0064 22.0521 95.0096 22.085V21.8874C95.0096 21.0973 94.5219 19.9778 91.933 19.9778C90.2071 19.9778 88.3686 20.5046 87.243 21.0973L86.2675 18.1012C87.4681 17.5085 89.7943 16.7842 92.871 16.7842C98.5365 16.7842 100.337 19.7144 100.337 23.2373V28.3735ZM95.1972 24.9494C92.4207 24.9165 90.2446 25.5091 90.2446 27.287C90.2446 28.4723 91.1451 29.0649 92.3457 29.0649C93.6589 29.0649 94.747 28.3077 95.0847 27.3529C95.1597 27.1224 95.1972 26.8261 95.1972 26.5627V24.9494Z" fill="white"/>
<path d="M104.54 21.8213C104.54 19.9446 104.465 18.3642 104.39 17.0473H108.967L109.192 19.0886H109.305C110.018 18.1338 111.744 16.718 114.558 16.718C118.047 16.718 120.636 18.7264 120.636 23.1382V31.9949H115.345V23.7309C115.345 21.8213 114.595 20.5043 112.682 20.5043C111.218 20.5043 110.355 21.3933 110.018 22.2493C109.868 22.5456 109.793 22.9736 109.793 23.4016V31.9949H104.502V21.8213H104.54Z" fill="white"/>
<path d="M141.385 10.3308V27.5502C141.385 29.2294 141.46 31.0073 141.535 31.995H136.845L136.62 29.7891H136.545C135.456 31.4682 133.43 32.3242 131.217 32.3242C127.165 32.3242 123.938 29.2952 123.938 24.6529C123.9 19.6155 127.502 16.7181 131.554 16.7181C133.655 16.7181 135.269 17.3437 136.057 18.3973H136.132V10.3308H141.385ZM136.094 23.4018C136.094 23.1713 136.057 22.8091 136.019 22.5787C135.719 21.3275 134.556 20.274 132.943 20.274C130.541 20.274 129.303 22.1506 129.303 24.5212C129.303 27.0564 130.729 28.6367 132.905 28.6367C134.443 28.6367 135.644 27.7148 135.982 26.3979C136.094 26.0686 136.132 25.7394 136.132 25.3443V23.4018H136.094Z" fill="white"/>
<path d="M159.806 28.3735C159.806 29.8222 159.881 31.1721 160.031 31.9952H155.266L154.966 30.5136H154.854C153.728 31.6989 152.002 32.3574 149.976 32.3574C146.524 32.3574 144.498 30.1514 144.498 27.7809C144.498 23.8958 148.475 22.0521 154.478 22.085V21.8874C154.478 21.0973 153.991 19.9778 151.402 19.9778C149.676 19.9778 147.837 20.5046 146.712 21.0973L145.736 18.1012C146.937 17.5085 149.263 16.7842 152.34 16.7842C158.005 16.7842 159.806 19.7144 159.806 23.2373V28.3735ZM154.666 24.9494C151.889 24.9165 149.713 25.5091 149.713 27.287C149.713 28.4723 150.614 29.0649 151.814 29.0649C153.128 29.0649 154.216 28.3077 154.553 27.3529C154.628 27.1224 154.666 26.8261 154.666 26.5627V24.9494Z" fill="white"/>
<path d="M163.971 21.9859C163.971 19.78 163.896 18.3642 163.821 17.0802H168.361L168.549 19.8129H168.699C169.562 17.6399 171.663 16.718 173.276 16.718C173.764 16.718 173.989 16.718 174.402 16.7839V21.1957C174.027 21.0969 173.576 21.0311 172.976 21.0311C171.025 21.0311 169.712 21.953 169.374 23.3687C169.299 23.665 169.262 24.0272 169.262 24.4223V31.9949H163.971V21.9859Z" fill="white"/>
<path d="M193.387 10.3308V27.5502C193.387 29.2294 193.462 31.0073 193.537 31.995H188.847L188.622 29.7891H188.546C187.458 31.4682 185.432 32.3242 183.219 32.3242C179.166 32.3242 175.94 29.2952 175.94 24.6529C175.902 19.6155 179.504 16.7181 183.556 16.7181C185.657 16.7181 187.271 17.3437 188.059 18.3973H188.134V10.3308H193.387ZM188.096 23.4018C188.096 23.1713 188.059 22.8091 188.021 22.5787C187.721 21.3275 186.558 20.274 184.945 20.274C182.543 20.274 181.305 22.1506 181.305 24.5212C181.305 27.0564 182.731 28.6367 184.907 28.6367C186.445 28.6367 187.646 27.7148 187.984 26.3979C188.096 26.0686 188.134 25.7394 188.134 25.3443V23.4018H188.096Z" fill="white"/>
<defs>
<clipPath id="clip0">
<rect width="84.1379" height="84.9282" fill="white" transform="translate(0 0.776367)"/>
</clipPath>
</defs>
</svg>
