<svg width="42" height="42" viewBox="0 0 42 42" fill="none" xmlns="http://www.w3.org/2000/svg">
<circle cx="20.7889" cy="20.7884" r="20.657" fill="black" fill-opacity="0.8"/>
<path d="M28.7143 19.0714H22.9286V13.2857C22.9286 12.5758 22.3528 12 21.6429 12H20.3571C19.6472 12 19.0714 12.5758 19.0714 13.2857V19.0714H13.2857C12.5758 19.0714 12 19.6472 12 20.3571V21.6429C12 22.3528 12.5758 22.9286 13.2857 22.9286H19.0714V28.7143C19.0714 29.4242 19.6472 30 20.3571 30H21.6429C22.3528 30 22.9286 29.4242 22.9286 28.7143V22.9286H28.7143C29.4242 22.9286 30 22.3528 30 21.6429V20.3571C30 19.6472 29.4242 19.0714 28.7143 19.0714Z" fill="white"/>
</svg>
