<svg width="36" height="36" viewBox="0 0 36 36" fill="none" xmlns="http://www.w3.org/2000/svg">
<circle cx="18" cy="18" r="18" fill="#007965"/>
<path d="M20.1824 17.04C21.6544 17.28 22.7824 17.832 23.5664 18.696C24.3504 19.544 24.7424 20.6 24.7424 21.864C24.7424 22.84 24.4864 23.744 23.9744 24.576C23.4624 25.392 22.6784 26.048 21.6224 26.544C20.5824 27.04 19.3024 27.288 17.7824 27.288C16.5984 27.288 15.4304 27.136 14.2784 26.832C13.1424 26.512 12.1744 26.064 11.3744 25.488L12.8864 22.512C13.5264 22.992 14.2624 23.368 15.0944 23.64C15.9424 23.896 16.8064 24.024 17.6864 24.024C18.6624 24.024 19.4304 23.84 19.9904 23.472C20.5504 23.088 20.8304 22.552 20.8304 21.864C20.8304 20.488 19.7824 19.8 17.6864 19.8H15.9104V17.232L19.3664 13.32H12.2144V10.2H23.9744V12.72L20.1824 17.04Z" fill="white"/>
</svg>
