<svg width="36" height="36" viewBox="0 0 36 36" fill="none" xmlns="http://www.w3.org/2000/svg">
<circle cx="18" cy="18" r="18" fill="#007965"/>
<path d="M24.9099 23.832V27H12.2139V24.48L18.6939 18.36C19.3819 17.704 19.8459 17.144 20.0859 16.68C20.3259 16.2 20.4459 15.728 20.4459 15.264C20.4459 14.592 20.2139 14.08 19.7499 13.728C19.3019 13.36 18.6379 13.176 17.7579 13.176C17.0219 13.176 16.3579 13.32 15.7659 13.608C15.1739 13.88 14.6779 14.296 14.2779 14.856L11.4459 13.032C12.1019 12.056 13.0059 11.296 14.1579 10.752C15.3099 10.192 16.6299 9.912 18.1179 9.912C19.3659 9.912 20.4539 10.12 21.3819 10.536C22.3259 10.936 23.0539 11.512 23.5659 12.264C24.0939 13 24.3579 13.872 24.3579 14.88C24.3579 15.792 24.1659 16.648 23.7819 17.448C23.3979 18.248 22.6539 19.16 21.5499 20.184L17.6859 23.832H24.9099Z" fill="white"/>
</svg>
